<svg width="192" height="83" viewBox="0 0 192 83" fill="none" xmlns="http://www.w3.org/2000/svg">
<g filter="url(#filter0_d_0_1)">
<rect width="184" height="75" fill="white"/>
<g filter="url(#filter1_d_0_1)">
<path d="M27.831 28.7273V32.9886H12.9339V28.7273H27.831ZM16.929 22.1932H22.2379V47.9922C22.2379 49.022 22.3918 49.7973 22.6996 50.3182C23.0073 50.8272 23.4039 51.1764 23.8892 51.3658C24.3864 51.5433 24.925 51.6321 25.505 51.6321C25.9311 51.6321 26.304 51.6025 26.6236 51.5433C26.9432 51.4841 27.1918 51.4368 27.3693 51.4013L28.3281 55.7869C28.0204 55.9053 27.5824 56.0237 27.0142 56.142C26.446 56.2723 25.7358 56.3433 24.8835 56.3551C23.4867 56.3788 22.1847 56.1302 20.9773 55.6094C19.7699 55.0885 18.7933 54.2836 18.0476 53.1946C17.3018 52.1056 16.929 50.7384 16.929 49.093V22.1932ZM41.6404 56.6037C39.9122 56.6037 38.3497 56.2841 36.9529 55.6449C35.5562 54.9938 34.4494 54.0528 33.6326 52.8217C32.8277 51.5907 32.4252 50.0814 32.4252 48.294C32.4252 46.7552 32.7212 45.4886 33.313 44.4943C33.9049 43.5 34.7039 42.7128 35.71 42.1328C36.7162 41.5528 37.8407 41.1148 39.0836 40.8189C40.3265 40.523 41.5931 40.2981 42.8833 40.1442C44.5169 39.9548 45.8426 39.8009 46.8606 39.6825C47.8786 39.5523 48.6184 39.3452 49.0801 39.0611C49.5417 38.777 49.7725 38.3153 49.7725 37.6761V37.5518C49.7725 36.0012 49.3346 34.7997 48.4586 33.9474C47.5945 33.0952 46.3043 32.669 44.5879 32.669C42.8005 32.669 41.3919 33.0656 40.362 33.8587C39.344 34.6399 38.6397 35.5099 38.2491 36.4688L33.2598 35.3324C33.8516 33.6752 34.7157 32.3376 35.8521 31.3196C37.0003 30.2898 38.3201 29.544 39.8116 29.0824C41.3031 28.6089 42.8715 28.3722 44.5169 28.3722C45.6059 28.3722 46.76 28.5024 47.9792 28.7628C49.2103 29.0114 50.3585 29.473 51.4238 30.1477C52.501 30.8224 53.3829 31.7872 54.0694 33.0419C54.756 34.2848 55.0993 35.9006 55.0993 37.8892V56H49.9146V52.2713H49.7015C49.3583 52.9579 48.8433 53.6326 48.1568 54.2955C47.4702 54.9583 46.5884 55.5088 45.5112 55.9467C44.434 56.3847 43.1438 56.6037 41.6404 56.6037ZM42.7946 52.3423C44.2624 52.3423 45.5171 52.0523 46.5588 51.4723C47.6123 50.8923 48.4113 50.1347 48.9558 49.1996C49.5121 48.2526 49.7903 47.2405 49.7903 46.1634V42.6477C49.6009 42.8371 49.234 43.0147 48.6895 43.1804C48.1568 43.3343 47.5472 43.4704 46.8606 43.5888C46.1741 43.6953 45.5053 43.7959 44.8542 43.8906C44.2032 43.9735 43.6587 44.0445 43.2207 44.1037C42.1909 44.2339 41.2498 44.4529 40.3975 44.7607C39.5571 45.0684 38.8824 45.5123 38.3734 46.0923C37.8762 46.6605 37.6277 47.4181 37.6277 48.3651C37.6277 49.679 38.113 50.6733 39.0836 51.348C40.0543 52.0109 41.2913 52.3423 42.7946 52.3423ZM82.6072 35.3857L77.7955 36.2379C77.5942 35.6224 77.2746 35.0365 76.8366 34.4801C76.4105 33.9238 75.8305 33.468 75.0966 33.1129C74.3627 32.7578 73.4453 32.5803 72.3445 32.5803C70.8411 32.5803 69.5864 32.9176 68.5803 33.5923C67.5741 34.2552 67.071 35.1134 67.071 36.1669C67.071 37.0784 67.4084 37.8123 68.0831 38.3686C68.7578 38.925 69.8468 39.3807 71.3501 39.7358L75.6825 40.7301C78.192 41.3101 80.0623 42.2038 81.2933 43.4112C82.5244 44.6186 83.1399 46.187 83.1399 48.1165C83.1399 49.75 82.6664 51.206 81.7195 52.4844C80.7843 53.7509 79.4763 54.7453 77.7955 55.4673C76.1264 56.1894 74.1911 56.5504 71.9893 56.5504C68.9354 56.5504 66.4437 55.8994 64.5142 54.5973C62.5848 53.2834 61.401 51.419 60.9631 49.0043L66.0945 48.223C66.4141 49.5606 67.071 50.5727 68.0653 51.2592C69.0597 51.9339 70.3558 52.2713 71.9538 52.2713C73.6939 52.2713 75.0848 51.9103 76.1264 51.1882C77.1681 50.4543 77.6889 49.5606 77.6889 48.5071C77.6889 47.6548 77.3693 46.9387 76.7301 46.3587C76.1027 45.7786 75.138 45.3407 73.8359 45.0447L69.2195 44.0327C66.6745 43.4527 64.7924 42.5294 63.5732 41.2628C62.3658 39.9962 61.7621 38.3923 61.7621 36.451C61.7621 34.8411 62.2119 33.4325 63.1115 32.2251C64.0111 31.0178 65.254 30.0767 66.8402 29.402C68.4264 28.7154 70.2434 28.3722 72.2912 28.3722C75.2386 28.3722 77.5587 29.0114 79.2514 30.2898C80.9441 31.5563 82.0627 33.255 82.6072 35.3857ZM93.8599 46.7493L93.8244 40.2685H94.7477L105.614 28.7273H111.971L99.5772 41.8665H98.7427L93.8599 46.7493ZM88.9771 56V19.6364H94.286V56H88.9771ZM106.2 56L96.4345 43.0384L100.092 39.3274L112.716 56H106.2ZM116.809 56V28.7273H122.118V56H116.809ZM119.49 24.5192C118.567 24.5192 117.774 24.2114 117.111 23.5959C116.46 22.9685 116.134 22.2228 116.134 21.3587C116.134 20.4827 116.46 19.737 117.111 19.1214C117.774 18.4941 118.567 18.1804 119.49 18.1804C120.414 18.1804 121.201 18.4941 121.852 19.1214C122.515 19.737 122.846 20.4827 122.846 21.3587C122.846 22.2228 122.515 22.9685 121.852 23.5959C121.201 24.2114 120.414 24.5192 119.49 24.5192ZM142.24 28.7273V32.9886H126.828V28.7273H142.24ZM131.054 56V25.5668C131.054 23.8622 131.426 22.4477 132.172 21.3232C132.918 20.1868 133.906 19.3404 135.137 18.7841C136.368 18.2159 137.706 17.9318 139.15 17.9318C140.216 17.9318 141.127 18.0206 141.885 18.1982C142.642 18.3639 143.204 18.5178 143.571 18.6598L142.328 22.9567C142.08 22.8857 141.76 22.8028 141.37 22.7081C140.979 22.6016 140.506 22.5483 139.949 22.5483C138.659 22.5483 137.736 22.8679 137.179 23.5071C136.635 24.1463 136.363 25.0696 136.363 26.277V56H131.054ZM151.073 66.2273C150.28 66.2273 149.558 66.1622 148.907 66.032C148.256 65.9136 147.771 65.7834 147.451 65.6413L148.729 61.2912C149.7 61.5516 150.564 61.6641 151.322 61.6286C152.079 61.593 152.748 61.3089 153.328 60.7763C153.92 60.2436 154.441 59.3736 154.891 58.1662L155.548 56.3551L145.569 28.7273H151.251L158.158 49.892H158.442L165.349 28.7273H171.048L159.809 59.6399C159.288 61.0604 158.625 62.2618 157.82 63.2443C157.015 64.2386 156.057 64.9844 154.944 65.4815C153.831 65.9787 152.541 66.2273 151.073 66.2273Z" fill="#6D0D7C"/>
</g>
</g>
<defs>
<filter id="filter0_d_0_1" x="0" y="0" width="192" height="83" filterUnits="userSpaceOnUse" color-interpolation-filters="sRGB">
<feFlood flood-opacity="0" result="BackgroundImageFix"/>
<feColorMatrix in="SourceAlpha" type="matrix" values="0 0 0 0 0 0 0 0 0 0 0 0 0 0 0 0 0 0 127 0" result="hardAlpha"/>
<feOffset dx="4" dy="4"/>
<feGaussianBlur stdDeviation="2"/>
<feComposite in2="hardAlpha" operator="out"/>
<feColorMatrix type="matrix" values="0 0 0 0 0 0 0 0 0 0 0 0 0 0 0 0 0 0 0.25 0"/>
<feBlend mode="normal" in2="BackgroundImageFix" result="effect1_dropShadow_0_1"/>
<feBlend mode="normal" in="SourceGraphic" in2="effect1_dropShadow_0_1" result="shape"/>
</filter>
<filter id="filter1_d_0_1" x="8.93396" y="17.9318" width="166.114" height="56.2955" filterUnits="userSpaceOnUse" color-interpolation-filters="sRGB">
<feFlood flood-opacity="0" result="BackgroundImageFix"/>
<feColorMatrix in="SourceAlpha" type="matrix" values="0 0 0 0 0 0 0 0 0 0 0 0 0 0 0 0 0 0 127 0" result="hardAlpha"/>
<feOffset dy="4"/>
<feGaussianBlur stdDeviation="2"/>
<feComposite in2="hardAlpha" operator="out"/>
<feColorMatrix type="matrix" values="0 0 0 0 0 0 0 0 0 0 0 0 0 0 0 0 0 0 0.25 0"/>
<feBlend mode="normal" in2="BackgroundImageFix" result="effect1_dropShadow_0_1"/>
<feBlend mode="normal" in="SourceGraphic" in2="effect1_dropShadow_0_1" result="shape"/>
</filter>
</defs>
</svg>
